<svg width="162" height="20" viewBox="0 0 162 20" fill="none" xmlns="http://www.w3.org/2000/svg">
<path d="M39 10.5C39 14.625 35.6237 18 31.4612 18C26.0037 18 23.2287 14.2499 20.5 10.5C17.7713 6.74998 14.9962 3 9.53869 3C5.3762 3 2 6.37501 2 10.5" stroke="white" stroke-width="4" stroke-miterlimit="10"/>
<path d="M39 10.5C39 6.37501 35.6237 3 31.4612 3C26.0038 3 23.2288 6.74998 20.5 10.5C17.7712 14.25 14.9962 18 9.53871 18C5.37621 18 2 14.625 2 10.5" stroke="white" stroke-width="4" stroke-miterlimit="10"/>
<path d="M53.5344 19.9576V0.59668H56.072V17.4322H64.0016V19.9576H53.5344ZM66.549 4.63721V1.94352H69.0866V4.63721H66.549ZM66.549 19.9576V5.98406H69.0866V19.9576H66.549ZM100.834 4.63721V1.94352H103.372V4.63721H100.834ZM100.834 19.9576V5.98406H103.372V19.9576H100.834ZM83.3298 11.0768C83.2508 10.5297 83.1316 9.9404 82.9334 9.35117C82.7352 8.76194 82.4179 8.21478 82.061 7.70968C81.6646 7.20465 81.1885 6.78374 80.5545 6.48916C79.9197 6.19451 79.1665 6.02612 78.2545 6.02612C77.0654 6.02612 76.0738 6.27871 75.2415 6.82587C74.8451 7.07839 74.5278 7.37297 74.2104 7.70968V6.02612H71.6728V19.9997H74.2104V13.055H74.2499C74.2499 12.2133 74.3296 11.5398 74.5278 10.9505C74.6865 10.3613 74.9241 9.89834 75.2415 9.56162C75.5589 9.22491 75.9151 8.9724 76.3121 8.80401C76.7085 8.63569 77.1444 8.55149 77.6205 8.55149C78.3342 8.55149 78.8893 8.71981 79.3252 9.01446C79.7617 9.30911 80.0784 9.72995 80.3563 10.193C80.594 10.698 80.7527 11.2031 80.8317 11.7923C80.9114 12.3816 80.9509 12.9287 80.9509 13.4759V19.9997H83.528V12.55C83.449 12.1291 83.4095 11.624 83.3298 11.0768ZM147.41 11.0768C147.331 10.5297 147.212 9.9404 147.014 9.35117C146.816 8.76194 146.498 8.21478 146.141 7.70968C145.745 7.20465 145.27 6.78374 144.635 6.48916C144.001 6.19451 143.248 6.02612 142.336 6.02612C141.146 6.02612 140.155 6.27871 139.322 6.82587C138.926 7.07839 138.608 7.37297 138.291 7.70968V6.02612H135.753V19.9997H138.291V13.055H138.331C138.331 12.2133 138.41 11.5398 138.608 10.9505C138.767 10.3613 139.005 9.89834 139.322 9.56162C139.639 9.22491 139.996 8.9724 140.393 8.80401C140.789 8.63569 141.225 8.55149 141.701 8.55149C142.415 8.55149 142.97 8.71981 143.406 9.01446C143.842 9.30911 144.16 9.72995 144.397 10.193C144.635 10.698 144.794 11.2031 144.873 11.7923C144.952 12.3816 144.992 12.9287 144.992 13.4759V19.9997H147.569V12.55C147.529 12.1291 147.49 11.624 147.41 11.0768ZM97.2563 13.6864H98.5251C98.6041 12.0869 98.4454 10.7401 97.97 9.56162C97.494 8.42523 96.7802 7.49929 95.8683 6.91C94.9169 6.27871 93.7672 5.98406 92.4589 5.98406C91.1901 5.98406 90.0398 6.27871 89.0883 6.86793C88.1369 7.45716 87.3836 8.25684 86.8286 9.35117C86.2735 10.4034 86.0351 11.6661 86.0351 13.0971C86.0351 14.4439 86.313 15.6645 86.8681 16.7168C87.4231 17.769 88.1764 18.5686 89.168 19.1158C90.159 19.705 91.3086 19.9997 92.6169 19.9997C93.8857 19.9997 95.036 19.663 96.1067 19.0316C97.1371 18.4003 97.9306 17.4744 98.4454 16.2959L95.948 15.4962C95.6306 16.1696 95.1545 16.7168 94.5995 17.0535C94.0049 17.4322 93.3307 17.6006 92.5379 17.6006C91.3086 17.6006 90.3966 17.2218 89.7626 16.4221C89.247 15.7487 88.9296 14.8648 88.8506 13.7705H96.1067H97.2563V13.6864ZM89.6434 9.47743C90.2782 8.67775 91.2296 8.25684 92.4984 8.25684C93.648 8.25684 94.5205 8.63569 95.0755 9.35117C95.4719 9.85627 95.7498 10.6138 95.8683 11.5398H88.771C88.9296 10.698 89.247 10.0246 89.6434 9.47743ZM112.025 19.9576C110.676 19.9576 109.527 19.663 108.575 19.0316C107.623 18.4424 106.909 17.6006 106.394 16.5484C105.879 15.4962 105.641 14.2756 105.641 12.9708C105.641 11.624 105.918 10.4034 106.434 9.35117C106.949 8.29897 107.663 7.45716 108.615 6.86793C109.566 6.27871 110.716 5.98406 112.025 5.98406C113.452 5.98406 114.681 6.36283 115.712 7.07839C116.742 7.79387 117.417 8.80401 117.734 10.0246L115.196 10.7401C114.959 9.98253 114.522 9.43537 113.967 9.01446C113.412 8.59355 112.739 8.3831 111.985 8.3831C111.152 8.3831 110.478 8.59355 109.923 8.9724C109.368 9.35117 108.972 9.89834 108.734 10.6138C108.456 11.2872 108.337 12.0869 108.337 12.9708C108.337 14.3176 108.654 15.454 109.289 16.2959C109.883 17.1377 110.795 17.5585 112.025 17.5585C112.857 17.5585 113.492 17.348 114.007 16.9693C114.522 16.5905 114.919 16.0433 115.157 15.3278L117.734 15.9591C117.298 17.2639 116.584 18.2319 115.593 18.9475C114.641 19.6209 113.412 19.9576 112.025 19.9576ZM126.744 19.9576C125.435 19.9576 124.285 19.663 123.334 19.0737C122.382 18.4844 121.629 17.6427 121.114 16.5905C120.598 15.5382 120.32 14.3176 120.32 12.9708C120.32 11.5819 120.598 10.3613 121.114 9.30911C121.669 8.25684 122.382 7.45716 123.373 6.86793C124.325 6.27871 125.475 5.98406 126.744 5.98406C128.052 5.98406 129.202 6.27871 130.153 6.86793C131.106 7.45716 131.859 8.29897 132.414 9.35117C132.929 10.4034 133.207 11.624 133.207 12.9708C133.207 14.3598 132.929 15.5804 132.414 16.6326C131.898 17.6848 131.145 18.4845 130.153 19.1158C129.162 19.663 128.052 19.9576 126.744 19.9576ZM126.744 17.5585C128.013 17.5585 128.925 17.1377 129.559 16.2959C130.194 15.454 130.51 14.3598 130.51 12.9708C130.51 11.5819 130.194 10.4876 129.559 9.64582C128.925 8.80401 128.013 8.3831 126.744 8.3831C125.872 8.3831 125.197 8.59355 124.642 8.9724C124.087 9.35117 123.691 9.89833 123.413 10.5718C123.136 11.2452 123.017 12.0449 123.017 12.9287C123.017 14.3176 123.334 15.412 123.968 16.2538C124.563 17.1377 125.515 17.5585 126.744 17.5585ZM155.786 19.9576C154.2 19.9576 152.892 19.6209 151.86 18.9053C150.87 18.1899 150.235 17.1797 149.997 15.9171L152.614 15.4962C152.772 16.1696 153.169 16.7168 153.724 17.1377C154.319 17.5164 155.033 17.7269 155.905 17.7269C156.698 17.7269 157.332 17.5585 157.769 17.2218C158.205 16.8851 158.442 16.4642 158.442 15.8749C158.442 15.5382 158.363 15.2857 158.205 15.0753C158.046 14.8648 157.729 14.6544 157.214 14.486C156.698 14.3176 155.945 14.0651 154.914 13.7705C153.804 13.4759 152.892 13.1392 152.217 12.8025C151.543 12.4658 151.068 12.0449 150.79 11.624C150.513 11.161 150.354 10.6138 150.354 9.98253C150.354 9.18285 150.552 8.4673 150.988 7.87807C151.425 7.28884 152.019 6.82587 152.772 6.48916C153.526 6.15245 154.438 5.98406 155.469 5.98406C156.46 5.98406 157.372 6.15245 158.165 6.44703C158.958 6.78374 159.593 7.20465 160.068 7.79387C160.544 8.3831 160.861 9.05652 160.94 9.85627L158.324 10.3192C158.244 9.68788 157.927 9.18285 157.451 8.80401C156.936 8.42523 156.302 8.21478 155.508 8.21478C154.755 8.17272 154.121 8.29897 153.645 8.59355C153.169 8.8882 152.931 9.26698 152.931 9.77208C152.931 10.0667 153.01 10.3192 153.209 10.5297C153.407 10.7401 153.764 10.9505 154.279 11.1189C154.794 11.2872 155.588 11.5398 156.618 11.7923C157.728 12.0869 158.601 12.3816 159.236 12.7603C159.87 13.0971 160.346 13.518 160.623 13.9809C160.901 14.4439 161.06 15.0332 161.06 15.7066C161.06 17.0113 160.584 18.0636 159.632 18.7791C158.76 19.5788 157.451 19.9576 155.786 19.9576Z" fill="white"/>
</svg>
